<svg width="81" height="81" xmlns="http://www.w3.org/2000/svg" xmlns:xlink="http://www.w3.org/1999/xlink" xml:space="preserve" overflow="hidden"><g transform="translate(-312 -124)"><g><g><g><g><path d="M313 125 393 125 393 205 313 205Z" fill="#8C4FFF" fill-rule="evenodd" fill-opacity="1"/><path d="M363.825 160.171C362.765 160.171 361.904 159.311 361.904 158.254 361.904 157.197 362.765 156.337 363.825 156.337 364.884 156.337 365.745 157.197 365.745 158.254 365.745 159.311 364.884 160.171 363.825 160.171M358.959 171.824C357.901 171.824 357.039 170.965 357.039 169.908 357.039 168.851 357.901 167.992 358.959 167.992 360.018 167.992 360.88 168.851 360.88 169.908 360.88 170.965 360.018 171.824 358.959 171.824M347.282 169.882C346.224 169.882 345.363 169.023 345.363 167.966 345.363 166.909 346.224 166.049 347.282 166.049 348.342 166.049 349.203 166.909 349.203 167.966 349.203 169.023 348.342 169.882 347.282 169.882M342.418 180.565C341.36 180.565 340.498 179.706 340.498 178.649 340.498 177.592 341.36 176.733 342.418 176.733 343.478 176.733 344.339 177.592 344.339 178.649 344.339 179.706 343.478 180.565 342.418 180.565M363.825 154.343C361.664 154.343 359.906 156.098 359.906 158.254 359.906 159.576 360.571 160.742 361.581 161.451L359.753 166.079C359.496 166.026 359.23 165.998 358.959 165.998 357.241 165.998 355.794 167.115 355.268 168.655L351.177 167.727C351.05 165.684 349.362 164.055 347.282 164.055 345.123 164.055 343.366 165.81 343.366 167.966 343.366 168.974 343.759 169.885 344.389 170.579L342.604 174.758C342.541 174.754 342.482 174.739 342.418 174.739 340.258 174.739 338.5 176.492 338.5 178.649 338.5 180.805 340.258 182.559 342.418 182.559 344.578 182.559 346.336 180.805 346.336 178.649 346.336 177.265 345.609 176.055 344.519 175.359L346.095 171.673C346.472 171.794 346.866 171.876 347.282 171.876 348.824 171.876 350.147 170.976 350.785 169.683L355.119 170.666C355.473 172.461 357.06 173.818 358.959 173.818 361.12 173.818 362.878 172.065 362.878 169.908 362.878 168.743 362.354 167.707 361.541 166.989L363.461 162.128C363.583 162.14 363.7 162.165 363.825 162.165 365.985 162.165 367.743 160.41 367.743 158.254 367.743 156.098 365.985 154.343 363.825 154.343M353 191.006C343.269 191.006 335.998 188.085 335.998 185.473L335.998 148.152C339.308 150.841 346.315 152.263 353.021 152.263 359.697 152.263 366.674 150.853 370.002 148.186L370.002 185.473C370.002 188.085 362.73 191.006 353 191.006M353.021 138.994C363.028 138.994 370.002 141.965 370.002 144.632 370.002 147.298 363.028 150.269 353.021 150.269 343.013 150.269 336.04 147.298 336.04 144.632 336.04 141.965 343.013 138.994 353.021 138.994M372 144.632C372 139.675 362.222 137 353.021 137 343.82 137 334.042 139.675 334.042 144.632 334.042 144.64 334.044 144.649 334.044 144.657L334 144.657 334 185.473C334 190.362 343.789 193 353 193 362.211 193 372 190.362 372 185.473L372 144.657 371.998 144.657C371.998 144.649 372 144.64 372 144.632" fill="#FFFFFF" fill-rule="evenodd" fill-opacity="1"/></g></g></g></g></g></svg>