<svg width="81" height="80" xmlns="http://www.w3.org/2000/svg" xmlns:xlink="http://www.w3.org/1999/xlink" xml:space="preserve" overflow="hidden"><g transform="translate(-313 -124)"><g><g><g><g><path d="M314 124 394 124 394 204 314 204Z" fill="#01A88D" fill-rule="evenodd" fill-opacity="1"/><path d="M354.062 163 354.062 187.711 329.407 163 354.062 163ZM355.442 191.049C355.815 190.894 356.058 190.529 356.058 190.125L356.058 162C356.058 161.448 355.612 161 355.06 161L326.998 161C326.595 161 326.23 161.244 326.076 161.617 325.921 161.991 326.007 162.421 326.293 162.707L354.355 190.832C354.545 191.023 354.801 191.125 355.06 191.125 355.189 191.125 355.319 191.1 355.442 191.049ZM381.002 192C380.743 192 380.487 191.898 380.297 191.707L360.092 171.457 361.503 170.043 380.005 188.586 380.005 138 329.531 138 348.033 156.543 346.622 157.957 326.417 137.707C326.132 137.421 326.046 136.991 326.201 136.617 326.354 136.244 326.72 136 327.123 136L381.002 136C381.554 136 382 136.448 382 137L382 191C382 191.404 381.758 191.769 381.384 191.924 381.261 191.975 381.131 192 381.002 192Z" fill="#FFFFFF" fill-rule="evenodd" fill-opacity="1"/></g></g></g></g></g></svg>