<svg width="82" height="80" xmlns="http://www.w3.org/2000/svg" xmlns:xlink="http://www.w3.org/1999/xlink" xml:space="preserve" overflow="hidden"><g transform="translate(-550 -124)"><g><g><g><g><path d="M551 124 631 124 631 204 551 204Z" fill="#C925D1" fill-rule="evenodd" fill-opacity="1"/><path d="M585.5 137.993C595.813 137.993 603 141.143 603 143.971 603 146.799 595.813 149.95 585.5 149.95 575.187 149.95 568 146.799 568 143.971 568 141.143 575.187 137.993 585.5 137.993L585.5 137.993ZM585.295 191.007C575.103 191.007 568 187.788 568 184.899L568 176.212C571.121 178.825 577.472 180.539 585.161 180.539 586.934 180.539 588.718 180.44 590.465 180.247L590.244 178.266C588.57 178.451 586.859 178.546 585.161 178.546 575.646 178.546 568.83 175.724 568 172.993L568 162.256C571.121 164.868 577.472 166.581 585.161 166.581 586.971 166.581 588.757 166.481 590.469 166.284L590.24 164.305C588.603 164.493 586.895 164.588 585.161 164.588 575.646 164.588 568.83 161.767 568 159.036L568 147.554C570.879 150.013 576.818 151.943 585.5 151.943 594.182 151.943 600.121 150.013 603 147.554L603 150.946 605 150.946 605 143.971C605 140.107 598.166 136 585.5 136 572.834 136 566 140.107 566 143.971L566 184.899C566 189.517 574.295 193 585.295 193 594.13 193 601.592 190.669 603.863 187.202L602.187 186.113C600.595 188.545 594.281 191.007 585.295 191.007ZM609.207 166.167C609.77 166.167 610.267 166.392 610.606 166.8 611.23 167.548 611.129 168.68 611.068 169.08 611.097 171.186 612.26 171.598 612.395 171.639 612.825 171.768 613.128 172.172 613.117 172.62 613.106 173.069 612.809 173.457 612.372 173.566 612.259 173.601 611.067 174.022 611.067 176.196 611.09 177.369 610.527 178.669 609.237 178.708L608.469 178.708 608.469 176.716 608.997 176.716C609.037 176.583 609.068 176.375 609.067 176.21 609.067 174.392 609.677 173.275 610.329 172.6 609.677 171.927 609.067 170.813 609.067 169.001 609.067 168.94 609.073 168.879 609.084 168.819 609.122 168.605 609.122 168.324 609.09 168.16L608.469 168.16 608.469 166.167 609.207 166.167ZM604.527 166.167 605.296 166.167 605.296 168.16 604.769 168.16C604.728 168.293 604.697 168.501 604.698 168.665 604.698 170.484 604.089 171.601 603.437 172.275 604.089 172.949 604.698 174.063 604.698 175.875 604.698 175.936 604.692 175.997 604.682 176.057 604.644 176.271 604.644 176.552 604.676 176.716L605.296 176.716 605.296 178.708 604.558 178.708C603.995 178.708 603.498 178.484 603.158 178.077 602.535 177.329 602.637 176.197 602.697 175.796 602.669 173.69 601.505 173.278 601.37 173.238 600.939 173.107 600.637 172.704 600.647 172.256 600.658 171.808 600.956 171.419 601.393 171.31 601.507 171.275 602.698 170.854 602.698 168.68 602.675 167.508 603.237 166.206 604.527 166.167ZM615 182.832 598 182.832 598 158.918 609 158.918 609 162.903C609 163.453 609.447 163.9 610 163.9L615 163.9 615 182.832ZM611 158.918 611.245 158.918 614.268 161.907 611 161.907 611 158.918ZM616.704 161.508 612.361 157.214C612.175 157.028 611.921 156.925 611.657 156.925L611 156.925 610.635 156.925 607.548 153.292C607.357 153.068 607.078 152.939 606.784 152.939L593 152.939C592.447 152.939 592 153.385 592 153.936L592 179.842C592 180.392 592.447 180.839 593 180.839L595 180.839 595 178.846 594 178.846 594 154.932 606.32 154.932 608.014 156.925 597 156.925C596.447 156.925 596 157.371 596 157.921L596 183.828C596 184.378 596.447 184.824 597 184.824L616 184.824C616.553 184.824 617 184.378 617 183.828L617 162.216C617 161.95 616.894 161.696 616.704 161.508Z" fill="#FFFFFF" fill-rule="evenodd" fill-opacity="1"/></g></g></g></g></g></svg>