<svg width="82" height="80" xmlns="http://www.w3.org/2000/svg" xmlns:xlink="http://www.w3.org/1999/xlink" xml:space="preserve" overflow="hidden"><g transform="translate(-790 -124)"><g><g><g><g><path d="M791 124 871 124 871 204 791 204Z" fill="#DD344C" fill-rule="evenodd" fill-opacity="1"/><path d="M848 185C848 183.374 846.626 182 845 182 843.374 182 842 183.374 842 185 842 186.626 843.374 188 845 188 846.626 188 848 186.626 848 185L848 185ZM831 184C829.374 184 828 185.374 828 187 828 188.626 829.374 190 831 190 832.626 190 834 188.626 834 187 834 185.374 832.626 184 831 184ZM817 182C815.374 182 814 183.374 814 185 814 186.626 815.374 188 817 188 818.626 188 820 186.626 820 185 820 183.374 818.626 182 817 182ZM819.605 167 842.395 167 834.739 160.11 831.649 162.758C831.463 162.919 831.23 162.999 830.999 162.999 830.768 162.999 830.535 162.919 830.349 162.758L827.26 160.11 819.605 167ZM818 152.173 818 165.755 825.729 158.798 818 152.173ZM842.297 150.999 819.703 150.999 830.999 160.682 842.297 150.999ZM844 165.755 844 152.173 836.271 158.797 844 165.755ZM850 185C850 187.71 847.71 190 845 190 842.29 190 840 187.71 840 185 840 182.631 841.75 180.584 844 180.106L844 177 832 177 832 182.106C834.25 182.584 836 184.631 836 187 836 189.71 833.71 192 831 192 828.29 192 826 189.71 826 187 826 184.631 827.75 182.584 830 182.106L830 177 818 177 818 180.106C820.25 180.584 822 182.631 822 185 822 187.71 819.71 190 817 190 814.29 190 812 187.71 812 185 812 182.631 813.75 180.584 816 180.106L816 176C816 175.448 816.447 175 817 175L830 175 830 169 817 169C816.447 169 816 168.552 816 168L816 149.999C816 149.447 816.447 148.999 817 148.999L845 148.999C845.553 148.999 846 149.447 846 149.999L846 168C846 168.552 845.553 169 845 169L832 169 832 175 845 175C845.553 175 846 175.448 846 176L846 180.106C848.25 180.584 850 182.631 850 185ZM859 163.999C859 169.907 857.177 175.56 853.727 180.345L852.104 179.175C855.307 174.732 857 169.485 857 163.999 857 149.664 845.337 138 831.001 138 816.664 138 805 149.664 805 163.999 805 169.485 806.693 174.732 809.896 179.175L808.273 180.345C804.823 175.56 803 169.907 803 163.999 803 148.561 815.561 136 830.999 136 846.438 136 859 148.561 859 163.999Z" fill="#FFFFFF" fill-rule="evenodd" fill-opacity="1"/></g></g></g></g></g></svg>