<svg width="82" height="80" xmlns="http://www.w3.org/2000/svg" xmlns:xlink="http://www.w3.org/1999/xlink" xml:space="preserve" overflow="hidden"><g transform="translate(-550 -124)"><g><g><g><g><path d="M551 124 631 124 631 204 551 204Z" fill="#E7157B" fill-rule="evenodd" fill-opacity="1"/><path d="M579.717 167.688 582.719 164.722C582.907 164.536 583.013 164.283 583.014 164.02 583.015 163.756 582.91 163.503 582.723 163.316L579.721 160.316 578.302 161.718 579.59 163.006 575.009 163.006 575.009 164.994 579.606 164.994 578.306 166.278 579.717 167.688ZM602.628 167.778 606.63 164.793C606.88 164.605 607.03 164.311 607.03 163.999 607.03 163.686 606.88 163.391 606.629 163.203L602.627 160.222 601.426 161.813 603.027 163.006 599.024 163.006 599.024 164.994 603.026 164.994 601.425 166.187 602.628 167.778ZM586.208 164C586.208 166.111 585.843 168.101 585.161 169.833 586.961 169.141 588.991 168.795 591.019 168.795 593.048 168.795 595.078 169.141 596.877 169.833 596.196 168.101 595.83 166.111 595.83 164 595.83 161.889 596.196 159.9 596.877 158.167 593.278 159.55 588.761 159.55 585.161 158.167 585.843 159.9 586.208 161.889 586.208 164ZM581.306 173.651C581.111 173.457 581.013 173.203 581.013 172.948 581.013 172.694 581.111 172.439 581.306 172.245 583.122 170.441 584.207 167.358 584.207 164 584.207 160.642 583.122 157.559 581.306 155.755 581.111 155.561 581.013 155.306 581.013 155.052 581.013 154.797 581.111 154.543 581.306 154.349 581.697 153.96 582.33 153.96 582.721 154.349 586.598 158.202 595.44 158.202 599.318 154.349 599.709 153.96 600.341 153.96 600.732 154.349 600.928 154.543 601.026 154.797 601.026 155.052 601.026 155.306 600.928 155.561 600.732 155.755 598.916 157.559 597.832 160.642 597.832 164 597.832 167.358 598.916 170.441 600.732 172.245 600.928 172.439 601.026 172.694 601.026 172.948 601.026 173.203 600.928 173.457 600.732 173.651 600.537 173.845 600.281 173.943 600.025 173.943 599.769 173.943 599.513 173.845 599.318 173.651 595.44 169.798 586.598 169.798 582.721 173.651 582.33 174.04 581.697 174.04 581.306 173.651ZM617.001 164.005C617.001 163.078 616.638 162.207 615.978 161.552 615.298 160.875 614.403 160.538 613.51 160.538 612.616 160.538 611.722 160.875 611.041 161.552 609.679 162.904 609.679 165.105 611.041 166.458 612.402 167.81 614.615 167.811 615.978 166.458 616.638 165.803 617.001 164.932 617.001 164.005ZM617.393 167.864C616.323 168.928 614.917 169.459 613.51 169.459 612.103 169.459 610.697 168.928 609.626 167.864 607.484 165.736 607.484 162.274 609.626 160.146 611.769 158.017 615.253 158.019 617.393 160.146 619.536 162.274 619.536 165.736 617.393 167.864ZM571.98 164.028C571.98 163.101 571.617 162.23 570.957 161.575 570.298 160.92 569.421 160.559 568.489 160.559 567.557 160.559 566.681 160.92 566.02 161.575 565.361 162.23 564.998 163.101 564.998 164.028 564.998 164.953 565.361 165.824 566.02 166.481 567.34 167.79 569.638 167.79 570.957 166.481 571.617 165.824 571.98 164.953 571.98 164.028ZM572.372 167.887C571.302 168.95 569.896 169.482 568.489 169.482 567.083 169.482 565.677 168.95 564.605 167.887 562.465 165.759 562.465 162.297 564.605 160.169 566.748 158.042 570.231 158.042 572.372 160.169 574.514 162.297 574.514 165.759 572.372 167.887ZM605.896 178.856C601.901 182.826 596.589 185.012 590.939 185.012 585.288 185.012 579.976 182.826 575.982 178.856 573.242 176.135 571.734 172.883 570.951 170.635L569.06 171.285C569.912 173.731 571.558 177.273 574.567 180.262 578.94 184.608 584.753 187 590.939 187 597.124 187 602.938 184.608 607.311 180.262 609.837 177.754 611.85 174.564 612.979 171.282L611.086 170.638C610.054 173.638 608.21 176.557 605.896 178.856ZM570.95 157.366 569.061 156.714C570.272 153.25 572.229 150.061 574.573 147.733 578.943 143.391 584.755 141 590.939 141 597.123 141 602.935 143.391 607.305 147.733 609.771 150.184 611.84 153.457 612.977 156.714L611.088 157.366C610.044 154.384 608.15 151.385 605.89 149.139 601.898 145.172 596.588 142.988 590.939 142.988 585.29 142.988 579.98 145.172 575.988 149.139 573.854 151.26 572.065 154.182 570.95 157.366Z" fill="#FFFFFF" fill-rule="evenodd" fill-opacity="1"/></g></g></g></g></g></svg>