<svg width="82" height="80" xmlns="http://www.w3.org/2000/svg" xmlns:xlink="http://www.w3.org/1999/xlink" xml:space="preserve" overflow="hidden"><g transform="translate(-790 -124)"><g><g><g><g><path d="M791 124 871 124 871 204 791 204Z" fill="#DD344C" fill-rule="evenodd" fill-opacity="1"/><path d="M838 166.814C837.979 168.629 837.462 174.316 832 174.938L832 153.036 838 155.592 838 166.814ZM824 166.766 824 155.592 830 153.036 830 174.938C824.537 174.311 824.021 168.583 824 166.766ZM830.608 150.603 822.608 154.011C822.239 154.168 822 154.53 822 154.931L822 166.777C822.054 171.493 824.443 177.001 831 177.001 837.556 177.001 839.945 171.526 840 166.827L840 154.931C840 154.53 839.761 154.168 839.392 154.011L831.392 150.603C831.142 150.497 830.858 150.497 830.608 150.603ZM842 166.825C841.999 167.322 841.843 179.001 831 179.001 820.157 179.001 820.001 167.286 820 166.788L820 152.949 831 148.262 842 152.949 842 166.825ZM843.392 151.368 831.392 146.255C831.142 146.148 830.858 146.148 830.608 146.255L818.608 151.368C818.239 151.525 818 151.887 818 152.288L818 166.788C818 166.93 818.148 181.001 831 181.001 843.852 181.001 844 166.968 844 166.827L844 152.288C844 151.887 843.761 151.525 843.392 151.368ZM857 168.308 853.577 168.112C853.119 168.085 852.653 168.413 852.545 168.891 851.994 171.335 851.035 173.651 849.693 175.778 849.433 176.192 849.509 176.733 849.873 177.058L852.431 179.34 846.339 185.431 844.064 182.881C843.737 182.515 843.196 182.441 842.784 182.702 840.661 184.044 838.341 185.004 835.89 185.558 835.413 185.666 835.084 186.103 835.112 186.591L835.308 190 826.692 190 826.888 186.588C826.916 186.1 826.587 185.663 826.11 185.555 823.667 185.003 821.349 184.041 819.22 182.697 818.807 182.437 818.265 182.51 817.939 182.877L815.661 185.431 809.569 179.34 812.123 177.063C812.487 176.737 812.563 176.196 812.303 175.783 810.962 173.658 810.003 171.339 809.452 168.892 809.345 168.414 808.896 168.089 808.42 168.112L805 168.308 805 159.692 808.428 159.887C808.889 159.903 809.351 159.587 809.46 159.11 810.013 156.67 810.975 154.356 812.316 152.231 812.577 151.818 812.501 151.276 812.137 150.951L809.569 148.661 815.661 142.569 817.95 145.134C818.275 145.5 818.817 145.574 819.229 145.314 821.352 143.976 823.666 143.018 826.109 142.467 826.587 142.359 826.916 141.922 826.888 141.435L826.692 138 835.308 138 835.112 141.437C835.084 141.925 835.413 142.361 835.89 142.469 838.331 143.022 840.645 143.981 842.766 145.319 843.176 145.579 843.72 145.504 844.045 145.139L846.339 142.569 852.431 148.661 849.867 150.947C849.503 151.272 849.427 151.814 849.688 152.227 851.028 154.349 851.988 156.664 852.542 159.109 852.649 159.587 853.119 159.903 853.574 159.887L857 159.692 857 168.308ZM858.687 157.906C858.487 157.718 858.214 157.618 857.943 157.635L854.291 157.843C853.739 155.752 852.911 153.754 851.82 151.885L854.553 149.448C854.758 149.265 854.879 149.006 854.887 148.731 854.895 148.456 854.788 148.189 854.594 147.995L847.005 140.406C846.811 140.211 846.532 140.107 846.27 140.114 845.994 140.122 845.735 140.242 845.552 140.447L843.106 143.187C841.239 142.098 839.244 141.271 837.156 140.72L837.364 137.056C837.38 136.782 837.282 136.513 837.093 136.313 836.904 136.113 836.642 136 836.366 136L825.634 136C825.358 136 825.096 136.113 824.907 136.313 824.718 136.513 824.62 136.782 824.636 137.056L824.844 140.717C822.755 141.267 820.758 142.094 818.889 143.182L816.448 140.447C816.265 140.242 816.006 140.122 815.73 140.114 815.472 140.109 815.189 140.211 814.995 140.406L807.406 147.995C807.212 148.189 807.105 148.456 807.113 148.731 807.121 149.006 807.242 149.265 807.447 149.448L810.184 151.89C809.092 153.76 808.263 155.756 807.712 157.843L804.057 157.635C803.785 157.617 803.513 157.718 803.313 157.906 803.113 158.095 803 158.358 803 158.633L803 169.366C803 169.641 803.113 169.904 803.313 170.093 803.513 170.282 803.786 170.377 804.057 170.365L807.702 170.157C808.252 172.251 809.079 174.252 810.171 176.124L807.447 178.552C807.242 178.735 807.121 178.995 807.113 179.27 807.105 179.545 807.212 179.811 807.406 180.005L814.995 187.594C815.189 187.789 815.469 187.897 815.73 187.886 816.006 187.878 816.266 187.758 816.448 187.552L818.878 184.829C820.752 185.923 822.753 186.753 824.844 187.304L824.636 190.943C824.62 191.218 824.718 191.486 824.907 191.687 825.096 191.887 825.358 192 825.634 192L836.366 192C836.642 192 836.904 191.887 837.093 191.687 837.282 191.486 837.38 191.217 837.364 190.943L837.156 187.307C839.253 186.755 841.255 185.926 843.126 184.834L845.552 187.552C845.734 187.758 845.994 187.878 846.27 187.886 846.535 187.899 846.811 187.789 847.005 187.594L854.594 180.005C854.788 179.811 854.895 179.545 854.887 179.27 854.879 178.995 854.758 178.735 854.553 178.552L851.825 176.119C852.917 174.247 853.745 172.247 854.295 170.157L857.943 170.365C858.213 170.376 858.487 170.282 858.687 170.093 858.887 169.904 859 169.641 859 169.366L859 158.633C859 158.358 858.887 158.095 858.687 157.906Z" fill="#FFFFFF" fill-rule="evenodd" fill-opacity="1"/></g></g></g></g></g></svg>