<svg width="81" height="80" xmlns="http://www.w3.org/2000/svg" xmlns:xlink="http://www.w3.org/1999/xlink" xml:space="preserve" overflow="hidden"><g transform="translate(-313 -124)"><g><g><g><g><path d="M314 124 394 124 394 204 314 204Z" fill="#E7157B" fill-rule="evenodd" fill-opacity="1"/><path d="M331 162C332.103 162 333 162.897 333 164 333 165.103 332.103 166 331 166 329.897 166 329 165.103 329 164 329 162.897 329.897 162 331 162L331 162ZM355 188C343.314 188 333.289 179.466 331.194 167.98 332.965 167.894 334.427 166.659 334.857 165L341 165 341 163 334.857 163C334.427 161.342 332.966 160.107 331.195 160.02 333.285 148.71 343.511 140 355 140 359.313 140 363.832 141.622 368.429 144.821L369.571 143.179C364.633 139.743 359.73 138 355 138 342.27 138 330.949 147.865 329.063 160.521 327.839 161.207 327 162.5 327 164 327 165.5 327.839 166.793 329.063 167.478 330.97 180.341 342.056 190 355 190 360.407 190 365.942 188.157 370.585 184.811L369.415 183.189C365.11 186.292 359.991 188 355 188ZM344.101 160.442C345.955 160.895 348.275 161 350 161 351.642 161 353.823 160.905 355.629 160.506L351.105 169.553C351.036 169.691 351 169.845 351 170L351 174.453C350.199 174.964 348.833 175.812 348 175.986L348 170C348 169.868 347.974 169.737 347.923 169.615L344.101 160.442ZM350 157C354.025 157 356.174 157.604 356.841 158 356.174 158.396 354.025 159 350 159 345.975 159 343.826 158.396 343.159 158 343.826 157.604 345.975 157 350 157ZM347 178 348 178C348.043 178 348.086 177.997 348.128 177.992 349.352 177.833 350.909 176.887 352.272 176.013L352.535 175.845C352.824 175.661 353 175.342 353 175L353 170.236 358.559 159.12C358.833 158.801 359 158.434 359 158 359 155.39 353.361 155 350 155 346.639 155 341 155.39 341 158 341 158.366 341.12 158.684 341.32 158.967L346 170.2 346 177C346 177.552 346.447 178 347 178ZM376 177C377.103 177 378 177.897 378 179 378 180.103 377.103 181 376 181 374.897 181 374 180.103 374 179 374 177.897 374.897 177 376 177ZM376 147C377.103 147 378 147.897 378 149 378 150.103 377.103 151 376 151 374.897 151 374 150.103 374 149 374 147.897 374.897 147 376 147ZM378 162C379.103 162 380 162.897 380 164 380 165.103 379.103 166 378 166 376.897 166 376 165.103 376 164 376 162.897 376.897 162 378 162ZM368 165 374.143 165C374.589 166.72 376.142 168 378 168 380.206 168 382 166.206 382 164 382 161.794 380.206 160 378 160 376.142 160 374.589 161.28 374.143 163L368 163 368 150 372.143 150C372.589 151.72 374.142 153 376 153 378.206 153 380 151.206 380 149 380 146.794 378.206 145 376 145 374.142 145 372.589 146.28 372.143 148L367 148C366.447 148 366 148.448 366 149L366 163 359 163 359 165 366 165 366 179C366 179.552 366.447 180 367 180L372.143 180C372.589 181.72 374.142 183 376 183 378.206 183 380 181.206 380 179 380 176.794 378.206 175 376 175 374.142 175 372.589 176.28 372.143 178L368 178 368 165Z" fill="#FFFFFF" fill-rule="evenodd" fill-opacity="1"/></g></g></g></g></g></svg>