<svg width="82" height="80" xmlns="http://www.w3.org/2000/svg" xmlns:xlink="http://www.w3.org/1999/xlink" xml:space="preserve" overflow="hidden"><g transform="translate(-550 -124)"><g><g><g><g><path d="M551 124 631 124 631 204 551 204Z" fill="#8C4FFF" fill-rule="evenodd" fill-opacity="1"/><path d="M595.26 175.33C590.843 175.33 587.25 171.737 587.25 167.321 587.25 162.904 590.843 159.311 595.26 159.311 599.677 159.311 603.27 162.904 603.27 167.321 603.27 171.737 599.677 175.33 595.26 175.33L595.26 175.33ZM595.26 157.311C589.74 157.311 585.25 161.801 585.25 167.321 585.25 172.84 589.74 177.33 595.26 177.33 600.78 177.33 605.27 172.84 605.27 167.321 605.27 161.801 600.78 157.311 595.26 157.311ZM615.548 185.346C614.897 186.067 613.777 186.127 613.052 185.477L604.712 177.954C605.593 177.17 606.384 176.29 607.049 175.313L615.416 182.851C616.139 183.503 616.197 184.624 615.548 185.346ZM583.011 167.321C583.011 160.566 588.506 155.071 595.26 155.071 602.014 155.071 607.509 160.566 607.509 167.321 607.509 174.075 602.014 179.57 595.26 179.57 588.506 179.57 583.011 174.075 583.011 167.321ZM608.063 173.535C608.98 171.654 609.509 169.55 609.509 167.321 609.509 159.463 603.117 153.071 595.26 153.071 587.403 153.071 581.011 159.463 581.011 167.321 581.011 175.178 587.403 181.57 595.26 181.57 598.159 181.57 600.856 180.695 603.109 179.202L611.714 186.964C612.432 187.609 613.333 187.927 614.232 187.926 615.263 187.926 616.29 187.508 617.034 186.685 618.42 185.143 618.296 182.757 616.756 181.366L608.063 173.535ZM618 144 618 178 616 178 616 145 608 145 608 156 606 156 606 144C606 143.448 606.448 143 607 143L617 143C617.553 143 618 143.448 618 144ZM602 185 604 185 604 190C604 190.553 603.553 191 603 191L593 191C592.447 191 592 190.553 592 190L592 184 594 184 594 189 602 189 602 185ZM594 150 592 150 592 138C592 137.448 592.447 137 593 137L603 137C603.553 137 604 137.448 604 138L604 152 602 152 602 139 594 139 594 150ZM588 183 590 183 590 190C590 190.553 589.553 191 589 191L579 191C578.448 191 578 190.553 578 190L578 175 580 175 580 189 588 189 588 183ZM580 160 578 160 578 147C578 146.448 578.448 146 579 146L589 146C589.553 146 590 146.448 590 147L590 151 588 151 588 148 580 148 580 160ZM566 189 574 189 574 155 566 155 566 189ZM575 153 565 153C564.448 153 564 153.448 564 154L564 190C564 190.553 564.448 191 565 191L575 191C575.553 191 576 190.553 576 190L576 154C576 153.448 575.553 153 575 153Z" fill="#FFFFFF" fill-rule="evenodd" fill-opacity="1"/></g></g></g></g></g></svg>