<svg width="81" height="80" xmlns="http://www.w3.org/2000/svg" xmlns:xlink="http://www.w3.org/1999/xlink" xml:space="preserve" overflow="hidden"><g transform="translate(-313 -124)"><g><g><g><g><path d="M314 124 394 124 394 204 314 204Z" fill="#DD344C" fill-rule="evenodd" fill-opacity="1"/><path d="M365.997 176.496 372.997 176.496 372.997 174.496 365.997 174.496 365.997 176.496ZM356.997 176.496 363.997 176.496 363.997 174.496 356.997 174.496 356.997 176.496ZM347.997 176.496 354.997 176.496 354.997 174.496 347.997 174.496 347.997 176.496ZM358.997 168.496C358.997 167.393 359.895 166.496 360.997 166.496 362.1 166.496 362.997 167.393 362.997 168.496 362.997 169.599 362.1 170.496 360.997 170.496 359.895 170.496 358.997 169.599 358.997 168.496ZM364.997 168.496C364.997 166.29 363.204 164.496 360.997 164.496 358.791 164.496 356.997 166.29 356.997 168.496 356.997 170.702 358.791 172.496 360.997 172.496 363.204 172.496 364.997 170.702 364.997 168.496ZM350.997 166.496C352.1 166.496 352.997 167.393 352.997 168.496 352.997 169.599 352.1 170.496 350.997 170.496 349.895 170.496 348.997 169.599 348.997 168.496 348.997 167.393 349.895 166.496 350.997 166.496ZM350.997 172.496C353.204 172.496 354.997 170.702 354.997 168.496 354.997 166.29 353.204 164.496 350.997 164.496 348.791 164.496 346.997 166.29 346.997 168.496 346.997 170.702 348.791 172.496 350.997 172.496ZM379.997 157.496 379.997 180.496C379.997 181.048 379.55 181.496 378.997 181.496L347.997 181.496 347.997 179.496 377.997 179.496 377.997 158.496 355.997 158.496 355.997 156.496 378.997 156.496C379.55 156.496 379.997 156.944 379.997 157.496ZM344.696 162.543C344.28 162.674 343.997 163.06 343.997 163.496L343.997 184.536 341.598 186.593 338.997 183.62 338.997 180.996C338.997 180.731 338.892 180.476 338.704 180.289L336.412 177.996 338.704 175.703C338.892 175.516 338.997 175.261 338.997 174.996L338.997 172.996C338.997 172.731 338.892 172.476 338.704 172.289L336.412 169.996 338.704 167.703C338.892 167.516 338.997 167.261 338.997 166.996L338.997 163.506C338.997 163.07 338.715 162.684 338.299 162.553 333.157 160.923 330.117 155.634 331.23 150.249 332.032 146.369 335.016 143.258 338.831 142.323 342.08 141.526 345.412 142.223 347.972 144.23 350.53 146.237 351.997 149.25 351.997 152.496 351.997 157.049 348.995 161.181 344.696 162.543ZM353.997 152.496C353.997 148.632 352.251 145.045 349.206 142.656 346.161 140.267 342.209 139.436 338.355 140.381 333.794 141.498 330.229 145.213 329.271 149.844L329.271 149.845C328.001 155.99 331.3 162.034 336.997 164.215L336.997 166.582 334.29 169.289C333.9 169.68 333.9 170.312 334.29 170.703L336.997 173.41 336.997 174.582 334.29 177.289C333.9 177.68 333.9 178.312 334.29 178.703L336.997 181.41 336.997 183.996C336.997 184.238 337.085 184.472 337.245 184.655L340.745 188.655C340.943 188.88 341.219 188.996 341.497 188.996 341.728 188.996 341.959 188.917 342.148 188.755L345.648 185.755C345.87 185.565 345.997 185.288 345.997 184.996L345.997 164.204C350.743 162.372 353.997 157.662 353.997 152.496ZM341.497 154.866C340.119 154.866 338.997 153.745 338.997 152.366 338.997 150.988 340.119 149.866 341.497 149.866 342.876 149.866 343.997 150.988 343.997 152.366 343.997 153.745 342.876 154.866 341.497 154.866ZM341.497 147.866C339.016 147.866 336.997 149.885 336.997 152.366 336.997 154.848 339.016 156.866 341.497 156.866 343.979 156.866 345.997 154.848 345.997 152.366 345.997 149.885 343.979 147.866 341.497 147.866Z" fill="#FFFFFF" fill-rule="evenodd" fill-opacity="1"/></g></g></g></g></g></svg>