<svg width="81" height="80" xmlns="http://www.w3.org/2000/svg" xmlns:xlink="http://www.w3.org/1999/xlink" xml:space="preserve" overflow="hidden"><g transform="translate(-313 -124)"><g><g><g><g><path d="M314 124 394 124 394 204 314 204Z" fill="#E7157B" fill-rule="evenodd" fill-opacity="1"/><path d="M369 187 377 187 377 179 369 179 369 187ZM350 187 358 187 358 179 350 179 350 187ZM331 187 339 187 339 179 331 179 331 187ZM378 177 374 177 374 172C374 171.448 373.552 171 373 171L355 171 355 168 353 168 353 171 335 171C334.447 171 334 171.448 334 172L334 177 330 177C329.447 177 329 177.448 329 178L329 188C329 188.552 329.447 189 330 189L340 189C340.552 189 341 188.552 341 188L341 178C341 177.448 340.552 177 340 177L336 177 336 173 353 173 353 177 349 177C348.447 177 348 177.448 348 178L348 188C348 188.552 348.447 189 349 189L359 189C359.552 189 360 188.552 360 188L360 178C360 177.448 359.552 177 359 177L355 177 355 173 372 173 372 177 368 177C367.447 177 367 177.448 367 178L367 188C367 188.552 367.447 189 368 189L378 189C378.552 189 379 188.552 379 188L379 178C379 177.448 378.552 177 378 177ZM354 141.155 363 146.351 354 151.547 345 146.351 354 141.155ZM355 163.671 355 153.279 364 148.083 364 158.476 355 163.671ZM344 148.083 353 153.279 353 163.671 344 158.476 344 148.083ZM342.5 159.919 353.5 166.27C353.654 166.359 353.827 166.403 354 166.403 354.172 166.403 354.345 166.359 354.5 166.27L365.5 159.919C365.809 159.74 366 159.41 366 159.053L366 146.351C366 145.994 365.809 145.664 365.5 145.485L354.5 139.134C354.191 138.955 353.808 138.955 353.5 139.134L342.5 145.485C342.19 145.664 342 145.994 342 146.351L342 159.053C342 159.41 342.19 159.74 342.5 159.919Z" fill="#FFFFFF" fill-rule="evenodd" fill-opacity="1"/></g></g></g></g></g></svg>