<svg width="81" height="80" xmlns="http://www.w3.org/2000/svg" xmlns:xlink="http://www.w3.org/1999/xlink" xml:space="preserve" overflow="hidden"><g transform="translate(-312 -124)"><g><g><g><g><path d="M313 124 393 124 393 204 313 204Z" fill="#8C4FFF" fill-rule="evenodd" fill-opacity="1"/><path d="M346 147 348 147 348 145 346 145 346 147ZM344 148 344 144C344 143.448 344.447 143 345 143L349 143C349.553 143 350 143.448 350 144L350 148C350 148.552 349.553 149 349 149L345 149C344.447 149 344 148.552 344 148ZM354 141 356 141 356 139 354 139 354 141ZM352 142 352 138C352 137.448 352.447 137 353 137L357 137C357.553 137 358 137.448 358 138L358 142C358 142.552 357.553 143 357 143L353 143C352.447 143 352 142.552 352 142ZM356 151 358 151 358 149 356 149 356 151ZM355 147 359 147C359.553 147 360 147.448 360 148L360 152C360 152.552 359.553 153 359 153L355 153C354.447 153 354 152.552 354 152L354 148C354 147.448 354.447 147 355 147ZM353 157.5C351.239 157.5 344.854 157.425 340.701 156.404L350.846 172.466C350.946 172.626 351 172.811 351 173L351 175.277C352.404 175.684 353.701 175.688 355 175.293L355 173C355 172.811 355.054 172.626 355.154 172.466L365.299 156.404C361.146 157.425 354.761 157.5 353 157.5ZM337.254 154.692C337.095 154.46 337 154.21 337 153.937 337 151.092 346.384 150.566 351.978 150.505L351.999 152.505C345.127 152.58 340.928 153.364 339.448 153.948 341.018 154.604 345.643 155.5 353 155.5 360.338 155.5 364.957 154.609 366.539 153.954 365.893 153.693 364.555 153.307 361.879 152.98L362.121 150.995C368.183 151.735 369 152.897 369 153.937 369 154.21 368.905 154.46 368.746 154.692L357 173.29 357 176C357 176.408 356.752 176.776 356.373 176.928 355.282 177.366 354.186 177.584 353.066 177.584 351.956 177.584 350.824 177.369 349.654 176.938 349.262 176.793 349 176.419 349 176L349 173.29 337.254 154.692ZM359.924 183.617C360.079 183.991 359.993 184.421 359.707 184.707L353.707 190.707C353.512 190.902 353.256 191 353 191 352.744 191 352.488 190.902 352.293 190.707L346.293 184.707C346.007 184.421 345.921 183.991 346.076 183.617 346.23 183.244 346.596 183 347 183L350 183 350 180 352 180 352 184C352 184.552 351.553 185 351 185L349.414 185 353 188.586 356.586 185 355 185C354.447 185 354 184.552 354 184L354 180 356 180 356 183 359 183C359.404 183 359.77 183.244 359.924 183.617Z" fill="#FFFFFF" fill-rule="evenodd" fill-opacity="1"/></g></g></g></g></g></svg>