<svg width="82" height="80" xmlns="http://www.w3.org/2000/svg" xmlns:xlink="http://www.w3.org/1999/xlink" xml:space="preserve" overflow="hidden"><g transform="translate(-550 -124)"><g><g><g><g><path d="M551 124 631 124 631 204 551 204Z" fill="#E7157B" fill-rule="evenodd" fill-opacity="1"/><path d="M598 178.998 611 178.998 611 180.998 598 180.998 598 182.999 596 182.999 596 180.998 592 180.998 592 178.998 596 178.998 596 177.998 598 177.998 598 178.998ZM602 172.997 611 172.997 611 174.997 602 174.997 602 176.998 600 176.998 600 174.997 592 174.997 592 172.997 600 172.997 600 171.997 602 171.997 602 172.997ZM607 166.996 611 166.996 611 168.997 607 168.997 607 170.997 605 170.997 605 168.997 592 168.997 592 166.996 605 166.996 605 165.996 607 165.996 607 166.996ZM572 170.997 581 170.997 581 172.997 572 172.997C570.745 172.997 569.404 172.62 568.413 171.989 566.393 170.71 563 167.715 563 162.042 563 155.16 567.665 152.635 570.38 151.75L570.326 150.834C570.324 145.166 574.074 139.354 579.046 137.257 584.869 134.781 591.036 136.008 595.545 140.537 596.944 141.939 598.096 143.648 598.978 145.631 600.749 144.156 603.16 143.651 605.4 144.386 608.247 145.32 610.019 147.951 610.227 151.494 613.065 152.173 619 154.508 619 162.132 619 162.417 618.989 162.692 618.978 162.955L616.979 162.902C616.989 162.635 617 162.389 617 162.132 617 155.397 611.443 153.706 609.054 153.292 608.784 153.245 608.546 153.091 608.394 152.864 608.243 152.639 608.19 152.363 608.246 152.098 608.217 149.117 606.956 147.001 604.776 146.286 602.823 145.643 600.677 146.352 599.434 148.044 599.214 148.341 598.853 148.497 598.482 148.441 598.116 148.387 597.81 148.135 597.686 147.786 596.853 145.443 595.656 143.48 594.129 141.951 590.216 138.019 584.867 136.955 579.826 139.099 575.618 140.873 572.324 146.002 572.324 150.775L572.423 152.429C572.451 152.907 572.136 153.338 571.671 153.456 569.18 154.09 565 156.049 565 162.042 565 166.521 567.438 169.005 569.485 170.3 570.16 170.731 571.123 170.997 572 170.997ZM617 176.318 615.236 176.217C614.763 176.192 614.312 176.518 614.204 176.996 613.866 178.494 613.278 179.914 612.456 181.216 612.195 181.63 612.271 182.172 612.637 182.498L613.954 183.672 610.673 186.954 609.502 185.641C609.176 185.274 608.633 185.2 608.222 185.461 606.92 186.283 605.499 186.872 603.997 187.211 603.521 187.319 603.191 187.756 603.22 188.244L603.32 190 598.68 190 598.78 188.242C598.809 187.754 598.479 187.317 598.003 187.209 596.505 186.871 595.084 186.281 593.78 185.458 593.367 185.196 592.825 185.271 592.5 185.638L591.326 186.953 588.046 183.672 589.361 182.5C589.726 182.173 589.802 181.633 589.541 181.219 588.72 179.917 588.132 178.497 587.794 176.996 587.687 176.518 587.209 176.192 586.762 176.217L585 176.318 585 171.677 586.768 171.778C587.233 171.804 587.691 171.477 587.8 171 588.139 169.505 588.728 168.086 589.55 166.785 589.811 166.371 589.734 165.829 589.37 165.504L588.046 164.323 591.327 161.041 592.508 162.365C592.834 162.729 593.376 162.804 593.787 162.544 595.087 161.725 596.505 161.137 598.003 160.799 598.479 160.691 598.809 160.254 598.78 159.766L598.68 157.995 603.32 157.995 603.22 159.768C603.191 160.256 603.521 160.692 603.997 160.8 605.492 161.139 606.909 161.727 608.211 162.547 608.622 162.808 609.165 162.732 609.49 162.368L610.673 161.041 613.954 164.323 612.633 165.501C612.269 165.827 612.192 166.368 612.453 166.782 613.275 168.083 613.864 169.503 614.202 171 614.31 171.476 614.763 171.804 615.234 171.778L617 171.677 617 176.318ZM617.943 169.62 615.942 169.734C615.617 168.589 615.16 167.487 614.579 166.445L616.076 165.11C616.281 164.927 616.402 164.668 616.41 164.392 616.418 164.118 616.312 163.851 616.117 163.657L611.339 158.878C611.145 158.683 610.868 158.571 610.604 158.586 610.328 158.594 610.069 158.714 609.886 158.919L608.546 160.421C607.505 159.841 606.406 159.386 605.263 159.06L605.377 157.052C605.393 156.777 605.295 156.508 605.105 156.308 604.917 156.108 604.654 155.995 604.379 155.995L597.621 155.995C597.346 155.995 597.083 156.108 596.895 156.308 596.705 156.508 596.607 156.777 596.623 157.052L596.737 159.058C595.592 159.383 594.492 159.839 593.452 160.418L592.114 158.919C591.931 158.714 591.672 158.594 591.396 158.586 591.113 158.573 590.855 158.683 590.661 158.878L585.883 163.657C585.688 163.851 585.582 164.118 585.59 164.392 585.598 164.667 585.719 164.927 585.924 165.11L587.424 166.448C586.843 167.49 586.386 168.59 586.06 169.734L584.057 169.62C583.789 169.602 583.513 169.703 583.313 169.891 583.113 170.08 583 170.343 583 170.618L583 177.377C583 177.652 583.113 177.915 583.313 178.104 583.513 178.292 583.79 178.39 584.057 178.375L586.053 178.261C586.378 179.409 586.834 180.511 587.415 181.554L585.924 182.884C585.719 183.067 585.598 183.327 585.59 183.602 585.582 183.877 585.688 184.144 585.883 184.338L590.661 189.117C590.855 189.312 591.138 189.419 591.396 189.41 591.672 189.402 591.932 189.281 592.114 189.076L593.444 187.583C594.487 188.166 595.59 188.624 596.736 188.951L596.623 190.943C596.607 191.217 596.705 191.486 596.895 191.687 597.083 191.887 597.346 192 597.621 192L604.379 192C604.654 192 604.917 191.887 605.106 191.687 605.295 191.486 605.393 191.217 605.377 190.943L605.264 188.952C606.412 188.626 607.515 188.168 608.558 187.586L609.886 189.076C610.068 189.281 610.328 189.402 610.604 189.41 610.871 189.422 611.145 189.312 611.339 189.117L616.117 184.338C616.312 184.144 616.418 183.877 616.41 183.602 616.402 183.327 616.281 183.067 616.075 182.884L614.582 181.552C615.163 180.509 615.619 179.407 615.945 178.261L617.943 178.375C618.213 178.39 618.487 178.292 618.687 178.104 618.887 177.915 619 177.652 619 177.377L619 170.618C619 170.343 618.887 170.08 618.687 169.891 618.487 169.703 618.214 169.603 617.943 169.62Z" fill="#FFFFFF" fill-rule="evenodd" fill-opacity="1"/></g></g></g></g></g></svg>