<svg width="82" height="80" xmlns="http://www.w3.org/2000/svg" xmlns:xlink="http://www.w3.org/1999/xlink" xml:space="preserve" overflow="hidden"><g transform="translate(-550 -124)"><g><g><g><g><path d="M551 124 631 124 631 204 551 204Z" fill="#E7157B" fill-rule="evenodd" fill-opacity="1"/><path d="M576 176.996 580 176.996 580 174.994 576 174.994 576 176.996ZM610.971 162.163C610.746 159.126 609.261 156.89 606.902 156.1 605.003 155.467 602.911 155.914 601.318 157.212 600.352 155.308 598.9 153.442 597.702 152.26 593.406 148.02 588.668 146.938 583.616 149.046 579.106 150.922 575 157.087 575 161.981L575 162.171C572.293 163.086 570.109 165.074 569.074 167.609L570.926 168.366C572.245 165.135 575.332 164.122 576.247 163.889 576.69 163.776 577 163.377 577 162.919L577 161.981C577 157.936 580.657 152.445 584.385 150.893 588.68 149.103 592.578 150.011 596.298 153.685 597.88 155.246 599.427 157.561 600.06 159.318 600.184 159.664 600.488 159.913 600.852 159.968 601.212 160.023 601.577 159.874 601.799 159.58 602.904 158.11 604.696 157.474 606.269 157.999 608.004 158.581 609 160.397 609 162.982 609 163.472 609.354 163.889 609.836 163.969 610.569 164.091 617 165.352 617 171.991 617 178.868 610.281 178.996 610 178.998L587 178.998 587 181 610.002 181C613.114 180.994 619 179.104 619 171.991 619 165.784 614.279 162.989 610.971 162.163ZM582 176.996 596 176.996 596 174.994 582 174.994 582 176.996ZM578 181 584 181 584 178.998 578 178.998 578 181ZM563 181 566 181 566 178.998 563 178.998 563 181ZM566 172.992 575 172.992 575 170.99 566 170.99 566 172.992ZM564 176.996 574 176.996 574 174.994 564 174.994 564 176.996ZM578 172.992 585 172.992 585 170.99 578 170.99 578 172.992ZM568 181 576 181 576 178.998 568 178.998 568 181Z" fill="#FFFFFF" fill-rule="evenodd" fill-opacity="1"/></g></g></g></g></g></svg>