<svg width="81" height="80" xmlns="http://www.w3.org/2000/svg" xmlns:xlink="http://www.w3.org/1999/xlink" xml:space="preserve" overflow="hidden"><g transform="translate(-313 -124)"><g><g><g><g><path d="M314 124 394 124 394 204 314 204Z" fill="#E7157B" fill-rule="evenodd" fill-opacity="1"/><path d="M377.726 154.349C377.339 154.498 376.927 154.574 376.5 154.574 374.571 154.574 373 153.004 373 151.074 373 149.847 373.628 148.732 374.689 148.087 375.236 147.746 375.845 147.574 376.5 147.574 378.43 147.574 380 149.144 380 151.074 380 152.523 379.09 153.837 377.726 154.349L377.726 154.349ZM376.5 145.574C375.788 145.574 375.091 145.72 374.446 145.983 373.887 145.271 373.304 144.583 372.686 143.956 367.74 138.826 361.083 136 353.944 136 346.846 136 340.207 138.805 335.249 143.896L336.683 145.292C341.26 140.59 347.391 138 353.944 138 360.536 138 366.68 140.608 371.254 145.352 371.782 145.888 372.278 146.468 372.754 147.066 371.646 148.093 371 149.523 371 151.074 371 154.107 373.468 156.574 376.5 156.574 377.174 156.574 377.83 156.453 378.437 156.218 380.569 155.419 382 153.352 382 151.074 382 148.041 379.533 145.574 376.5 145.574ZM357.435 186.72C357.321 188.559 355.787 190 353.944 190 352.101 190 350.568 188.559 350.447 186.653 350.441 186.603 350.444 186.549 350.444 186.5 350.444 184.571 352.014 183 353.944 183 355.873 183 357.444 184.571 357.444 186.5 357.444 186.552 357.447 186.611 357.435 186.72ZM377.795 158.758C377.953 159.819 378.032 160.939 378.032 162.088 378.032 172.532 371.377 181.73 361.46 184.981 360.796 185.209 360.085 185.395 359.358 185.561 358.91 182.975 356.655 181 353.944 181 350.912 181 348.444 183.468 348.444 186.5 348.444 186.632 348.447 186.78 348.457 186.844 348.637 189.735 351.047 192 353.944 192 356.589 192 358.809 190.103 359.311 187.615 360.284 187.414 361.228 187.176 362.097 186.877 372.825 183.361 380.032 173.399 380.032 162.088 380.032 160.842 379.945 159.623 379.774 158.466L377.795 158.758ZM331.5 147.574C332.118 147.574 332.724 147.74 333.26 148.057 334.35 148.69 335 149.818 335 151.074 335 153.004 333.43 154.574 331.5 154.574 331.038 154.574 330.597 154.49 330.191 154.322 328.861 153.779 328 152.504 328 151.074 328 149.144 329.571 147.574 331.5 147.574ZM329.857 162.088C329.857 160.921 329.936 159.789 330.094 158.716 330.201 157.953 330.356 157.211 330.533 156.482 330.848 156.538 331.17 156.574 331.5 156.574 334.533 156.574 337 154.107 337 151.074 337 149.126 335.952 147.307 334.272 146.332 333.435 145.836 332.476 145.574 331.5 145.574 328.468 145.574 326 148.041 326 151.074 326 153.024 327.018 154.787 328.65 155.776 328.43 156.643 328.241 157.529 328.115 158.432 327.944 159.594 327.857 160.824 327.857 162.088 327.857 173.399 335.064 183.361 345.791 186.877L346.414 184.976C336.511 181.73 329.857 172.532 329.857 162.088ZM346.973 174.986 346.973 168.192 353 164.778 353 171.572 346.973 174.986ZM338.947 164.778 344.973 168.192 344.973 174.986 338.947 171.572 338.947 164.778ZM345.973 159.665 351.971 163.062 345.973 166.459 339.976 163.062 345.973 159.665ZM346.973 151.138 353 154.552 353 161.346 346.973 157.932 346.973 151.138ZM354 146.025 359.998 149.422 354 152.819 348.002 149.422 354 146.025ZM361.028 157.932 355 161.346 355 154.552 361.028 151.138 361.028 157.932ZM368.025 163.062 362.028 166.459 356.03 163.062 362.028 159.665 368.025 163.062ZM369.054 171.572 363.028 174.986 363.028 168.192 369.054 164.778 369.054 171.572ZM361.028 174.986 355 171.572 355 164.778 361.028 168.192 361.028 174.986ZM361.535 177.572C361.688 177.659 361.858 177.702 362.028 177.702 362.198 177.702 362.368 177.659 362.521 177.572L370.547 173.025C370.861 172.848 371.054 172.516 371.054 172.155L371.054 163.062C371.054 162.702 370.861 162.37 370.547 162.192L363.028 157.932 363.028 149.422C363.028 149.062 362.834 148.73 362.521 148.552L354.494 144.005C354.187 143.832 353.814 143.832 353.507 144.005L345.48 148.552C345.166 148.73 344.973 149.062 344.973 149.422L344.973 157.932 337.454 162.192C337.14 162.37 336.947 162.702 336.947 163.062L336.947 172.155C336.947 172.516 337.14 172.848 337.454 173.025L345.48 177.572C345.787 177.745 346.16 177.745 346.466 177.572L354 173.305 361.535 177.572Z" fill="#FFFFFF" fill-rule="evenodd" fill-opacity="1"/></g></g></g></g></g></svg>