<svg width="82" height="80" xmlns="http://www.w3.org/2000/svg" xmlns:xlink="http://www.w3.org/1999/xlink" xml:space="preserve" overflow="hidden"><g transform="translate(-790 -124)"><g><g><g><g><path d="M791 124 871 124 871 204 791 204Z" fill="#DD344C" fill-rule="evenodd" fill-opacity="1"/><path d="M805 183 857 183 857 145 805 145 805 183ZM859 144 859 184C859 184.552 858.553 185 858 185L804 185C803.447 185 803 184.552 803 184L803 144C803 143.448 803.447 143 804 143L858 143C858.553 143 859 143.448 859 144ZM835 172 850 172 850 170 835 170 835 172ZM848 166 853 166 853 164 848 164 848 166ZM835 166 843 166 843 164 835 164 835 166ZM820 170C820 169.449 819.552 169 819 169 818.448 169 818 169.449 818 170 818 170.551 818.448 171 819 171 819.552 171 820 170.551 820 170ZM822 170C822 171.302 821.161 172.401 820 172.816L820 175 818 175 818 172.815C816.839 172.401 816 171.302 816 170 816 168.346 817.346 167 819 167 820.654 167 822 168.346 822 170ZM810 177.993 827.994 178 827.996 174 824 174 824 172 827.996 172 827.998 169 824 169 824 167 827.999 167 828 164.007 810.006 164 810 177.993ZM813 162.001 825 162.006 825 155C825.001 152.697 822.197 150.677 819 150.675L818.996 150.675C815.804 150.675 813.004 152.696 813.002 155L813 162.001ZM808 178.992 808.006 163C808.006 162.734 808.111 162.48 808.299 162.292 808.486 162.105 808.741 162 809.006 162L811 162.001 811.002 155C811.004 151.512 814.59 148.675 818.996 148.675L819 148.675C823.412 148.677 827.001 151.515 827 155L827 162.007 829 162.008C829.553 162.008 830 162.456 830 163.008L829.994 179C829.994 179.266 829.889 179.52 829.701 179.708 829.514 179.895 829.259 180 828.994 180L809 179.992C808.447 179.992 808 179.544 808 178.992ZM851 160 853 160 853 158 851 158 851 160ZM835 160 846 160 846 158 835 158 835 160Z" fill="#FFFFFF" fill-rule="evenodd" fill-opacity="1"/></g></g></g></g></g></svg>